{"title":"The Witch (2016) HDTS x264 - Exclusive","uid":13942195,"size":1382781081,"categoryP":"video","categoryS":"movies","magnet":"?xt=urn:btih:2e34085bb276e58eaf822232d26d247737365a53&amp;dn=The+Witch+%282016%29+HDTS+x264+-+Exclusive&amp;tr=udp%3A%2F%2Ftracker.leechers-paradise.org%3A6969&amp;tr=udp%3A%2F%2Fzer0day.ch%3A1337&amp;tr=udp%3A%2F%2Fopen.demonii.com%3A1337&amp;tr=udp%3A%2F%2Ftracker.coppersurfer.tk%3A6969&amp;tr=udp%3A%2F%2Fexodus.desync.com%3A6969","seeders":6,"leechers":3,"uploader":"makintos13","files":1,"time":1458473006,"description":"The Witch (2016) HDTS x264 - Exclusive\r\n\r\nScreens:\r\n \nhttp://imgmak.com/KtA\r\n \nhttp://imgmak.com/KtD\r\n \nhttp://imgmak.com/Ktf\r\n \nhttp://imgmak.com/KtE\r\n \nhttp://imgmak.com/Kth\r\n\r\n::::::::::::::::::::::::::::::::\r\n\r\nIMDB:\r\nwww.imdb.com/title/tt4263482/\r\n\r\nVideo: Latino HDCAM\r\nAudio: THX Th0ravenger for just another great Line Audio :)\r\n\r\n\r\nFormat : Matroska\r\nFormat version : Version 4 / Version 2\r\nFile size : 1.29 GiB\r\nDuration : 1h 23mn\r\nOverall bit rate mode : Variable\r\nOverall bit rate : 2 197 Kbps\r\nEncoded date : UTC 2016-03-20 05:47:56\r\nWriting application : mkvmerge v8.8.0 ('Wind at my back') 32bit\r\nWriting library : libebml v1.3.3 + libmatroska v1.4.4\r\nDURATION : 01:23:54.912000000\r\n\r\n\r\nVideo\r\nID : 1\r\nFormat : MPEG Video\r\nFormat version : Version 2\r\nFormat profile :   \r\nFormat settings, BVOP : No\r\nFormat settings, Matrix : Custom\r\nCodec ID : V_MPEG2\r\nCodec ID/Info : MPEG 1 or 2 Video\r\nDuration : 1h 23mn\r\nBit rate mode : Variable\r\nBit rate : 1 961 Kbps\r\nMaximum bit rate : 2 000 Kbps\r\nWidth : 720 pixels\r\nHeight : 480 pixels\r\nDisplay aspect ratio : 16:9\r\nFrame rate mode : Constant\r\nFrame rate : 29.970 fps\r\nStandard : NTSC\r\nColor space : YUV\r\nChroma subsampling : 4:2:0\r\nBit depth : 8 bits\r\nScan type : Interlaced\r\nScan order : Top Field First\r\nCompression mode : Lossy\r\nBits/(Pixel*Frame) : 0.189\r\nStream size : 1.15 GiB (89%)\r\nAlignment : encoded by TMPGEnc Video Mastering Works 5 Version. 5.0.6.38\r\nTitle : TMPGEnc\r\nWriting application : Video Mastering Works 5 Version. 5.0.6.38\r\nWriting library : TMPGEnc Video Mastering Works 5 Version. 5.0.6.38\r\nDefault : Yes\r\nForced : No\r\nColor primaries : BT.601 NTSC\r\nTransfer characteristics : BT.601\r\nMatrix coefficients : BT.601\r\n\r\nAudio\r\nID : 2\r\nFormat : AC-3\r\nFormat/Info : Audio Coding 3\r\nMode extension : CM (complete main)\r\nFormat settings, Endianness : Big\r\nCodec ID : A_AC3\r\nDuration : 1h 23mn\r\nBit rate mode : Constant\r\nBit rate : 192 Kbps\r\nChannel(s) : 2 channels\r\nChannel positions : Front: L R\r\nSampling rate : 48.0 KHz\r\nBit depth : 16 bits\r\nCompression mode : Lossy\r\nStream size : 115 MiB (9%)\r\nDefault : Yes\r\nForced : No","torrent":{"xt":"urn:btih:2e34085bb276e58eaf822232d26d247737365a53","amp;dn":"The+Witch+%282016%29+HDTS+x264+-+Exclusive","amp;tr":["udp%3A%2F%2Ftracker.leechers-paradise.org%3A6969","udp%3A%2F%2Fzer0day.ch%3A1337","udp%3A%2F%2Fopen.demonii.com%3A1337","udp%3A%2F%2Ftracker.coppersurfer.tk%3A6969","udp%3A%2F%2Fexodus.desync.com%3A6969"],"infoHash":"2e34085bb276e58eaf822232d26d247737365a53","infoHashBuffer":{"type":"Buffer","data":[46,52,8,91,178,118,229,142,175,130,34,50,210,109,36,119,55,54,90,83]},"announce":[],"urlList":[]}}